<?xml version="1.0" encoding="UTF-8" standalone="no"?>
<svg
   width="32"
   height="32"
   version="1.1"
   id="svg26"
   sodipodi:docname="audio.svg"
   xml:space="preserve"
   inkscape:version="1.3 (0e150ed, 2023-07-21)"
   xmlns:inkscape="http://www.inkscape.org/namespaces/inkscape"
   xmlns:sodipodi="http://sodipodi.sourceforge.net/DTD/sodipodi-0.dtd"
   xmlns="http://www.w3.org/2000/svg"
   xmlns:svg="http://www.w3.org/2000/svg"><sodipodi:namedview
     id="namedview26"
     pagecolor="#ffffff"
     bordercolor="#000000"
     borderopacity="0.25"
     inkscape:showpageshadow="2"
     inkscape:pageopacity="0.0"
     inkscape:pagecheckerboard="0"
     inkscape:deskcolor="#d1d1d1"
     inkscape:zoom="10.429825"
     inkscape:cx="66.492007"
     inkscape:cy="-8.8687969"
     inkscape:window-width="1904"
     inkscape:window-height="1064"
     inkscape:window-x="1374"
     inkscape:window-y="8"
     inkscape:window-maximized="0"
     inkscape:current-layer="svg26" /><defs
     id="materia"><style
       id="current-color-scheme"
       type="text/css">&#10;   .ColorScheme-Background {color:#181818; } .ColorScheme-ButtonBackground { color:#343434; } .ColorScheme-Highlight { color:#4285f4; } .ColorScheme-Text { color:#dfdfdf; } .ColorScheme-ViewBackground { color:#242424; } .ColorScheme-NegativeText { color:#f44336; } .ColorScheme-PositiveText { color:#4caf50; } .ColorScheme-NeutralText { color:#ff9800; }&#10;  </style></defs><g
     id="audio-volume-muted"><path
       style="opacity:0.001"
       d="M -6.8179997e-7,-4.5e-6 H 32 c 0,0 0,0 0,0 V 31.999996 c 0,0 0,0 0,0 H -6.8179997e-7 c 0,0 0,0 0,0 V -4.5e-6 c 0,0 0,0 0,0 z"
       id="path13" /><path
       style="opacity:0.35;fill:currentColor"
       class="ColorScheme-Text"
       d="M 5.1601562 2.0390625 L 3.0390625 4.1601562 L 8.7304688 9.8515625 L 7.5 11 L 3 11 L 3 21 L 7.5 21 L 15 28 L 15 16.121094 L 18 19.121094 L 18 21.914062 A 6 6 0 0 0 20.039062 21.160156 L 22.197266 23.318359 A 9 9 0 0 1 18 24.933594 L 18 27.949219 A 12 12 0 0 0 24.339844 25.460938 L 26.839844 27.960938 L 28.960938 25.839844 L 26.466797 23.345703 L 24.326172 21.205078 L 22.164062 19.042969 L 18 14.878906 L 15 11.878906 L 10.923828 7.8027344 L 5.1601562 2.0390625 z M 15 4 L 13.119141 5.7558594 L 15 7.6367188 L 15 4 z M 18 4.046875 L 18 7.0605469 A 9 9 0 0 1 26 16 A 9 9 0 0 1 25.683594 18.320312 L 28.039062 20.675781 A 12 12 0 0 0 29 16 A 12 12 0 0 0 18 4.046875 z M 18 10.089844 L 18 10.636719 L 22.980469 15.617188 A 6 6 0 0 0 18 10.089844 z"
       id="path14" /></g><g
     id="audio-volume-low"
     transform="translate(32.000001)"><path
       style="opacity:0.001"
       d="M -6.8179997e-7,-4.5e-6 H 32 c 0,0 0,0 0,0 V 31.999996 c 0,0 0,0 0,0 H -6.8179997e-7 c 0,0 0,0 0,0 V -4.5e-6 c 0,0 0,0 0,0 z"
       id="path15" /><path
       style="fill:currentColor"
       class="ColorScheme-Text"
       d="M 15,4 7.5,11 H 3 v 10 h 4.5 l 7.5,7 z"
       id="path16" /><path
       style="opacity:0.35;fill:currentColor"
       class="ColorScheme-Text"
       transform="translate(-32.000001)"
       d="M 50 4.046875 L 50 7.0605469 A 9 9 0 0 1 58 16 A 9 9 0 0 1 50 24.933594 L 50 27.949219 A 12 12 0 0 0 61 16 A 12 12 0 0 0 50 4.046875 z M 50 10.089844 L 50 21.914062 A 6 6 0 0 0 55 16 A 6 6 0 0 0 50 10.089844 z"
       id="path17" /></g><g
     id="audio-volume-medium"
     transform="translate(64.000002)"><path
       style="opacity:0.001"
       d="M -6.8179997e-7,-4.5e-6 H 32 c 0,0 0,0 0,0 V 31.999996 c 0,0 0,0 0,0 H -6.8179997e-7 c 0,0 0,0 0,0 V -4.5e-6 c 0,0 0,0 0,0 z"
       id="path18" /><path
       style="fill:currentColor"
       class="ColorScheme-Text"
       transform="translate(-64.000002)"
       d="M 79 4 L 71.5 11 L 67 11 L 67 21 L 71.5 21 L 79 28 L 79 4 z M 82 10.089844 L 82 21.914062 A 6 6 0 0 0 87 16 A 6 6 0 0 0 82 10.089844 z"
       id="path19" /><path
       style="opacity:0.35;fill:currentColor"
       class="ColorScheme-Text"
       d="M 18,4.046875 V 7.0605469 A 9,9 0 0 1 26,16 9,9 0 0 1 18,24.933594 v 3.015625 A 12,12 0 0 0 29,16 12,12 0 0 0 18,4.046875 Z"
       id="path20" /></g><g
     id="audio-volume-high"
     transform="translate(96.000003)"><path
       style="opacity:0.001"
       d="M -6.8179997e-7,-4.5e-6 H 32 c 0,0 0,0 0,0 V 31.999996 c 0,0 0,0 0,0 H -6.8179997e-7 c 0,0 0,0 0,0 V -4.5e-6 c 0,0 0,0 0,0 z"
       id="path21" /><path
       style="fill:currentColor"
       class="ColorScheme-Text"
       transform="translate(-96.000003)"
       d="M 111 4 L 103.5 11 L 99 11 L 99 21 L 103.5 21 L 111 28 L 111 4 z M 114 4.046875 L 114 7.0605469 A 9 9 0 0 1 122 16 A 9 9 0 0 1 114 24.933594 L 114 27.949219 A 12 12 0 0 0 125 16 A 12 12 0 0 0 114 4.046875 z M 114 10.089844 L 114 21.914062 A 6 6 0 0 0 119 16 A 6 6 0 0 0 114 10.089844 z"
       id="path22" /></g><g
     id="22-22-audio-radio-symbolic"
     transform="translate(-5.0000007,58.999996)"><rect
       style="opacity:0.001"
       width="22"
       height="22"
       x="5"
       y="5"
       id="rect22" /><path
       style="fill:currentColor"
       class="ColorScheme-Text"
       d="M 11.984375,6.9921855 C 11.432083,7.0007855 10.991355,7.4555205 11,8.0078105 v 3.0000005 h -1 c -1.108,0 -2,0.892 -2,2 V 22 c 0,1.108 0.892,2 2,2 h 12 c 1.108,0 2,-0.892 2,-2 v -8.992189 c 0,-1.108 -0.898672,-2.121413 -2,-2 H 13 V 8.0078105 c 0.0088,-0.56453 -0.45109,-1.024455 -1.015625,-1.015625 z M 10,13.007811 H 22 V 22 H 10 Z m 3.5,1.992188 A 2.5,2.5 0 0 0 11,17.5 2.5,2.5 0 0 0 13.5,20 2.5,2.5 0 0 0 16,17.5 2.5,2.5 0 0 0 13.5,14.999999 Z m 4,0 a 0.50005,0.50005 0 1 0 0,1 h 3 a 0.50005,0.50005 0 1 0 0,-1 z M 17.5,17 a 0.50005,0.50005 0 1 0 0,1 h 3 a 0.50005,0.50005 0 1 0 0,-1 z m 0,2 a 0.50005,0.50005 0 1 0 0,1 h 3 a 0.50005,0.50005 0 1 0 0,-1 z"
       id="path23" /></g><g
     id="audio-radio-symbolic"
     transform="translate(-1.8179997e-7,31.999996)"><rect
       style="opacity:0.001"
       width="32"
       height="32"
       x="0"
       y="0"
       id="rect23" /><path
       style="fill:currentColor"
       class="ColorScheme-Text"
       d="M 9.4765625,2.9785156 A 1.50015,1.50015 0 0 0 8,4.5 V 10 H 7 c -1.662,0 -3,1.338 -3,3 v 12 c 0,1.662 1.338,3 3,3 h 18 c 1.662,0 3,-1.338 3,-3 V 13 c 0,-1.662 -1.338,-3 -3,-3 H 11 V 4.5 A 1.50015,1.50015 0 0 0 9.4765625,2.9785156 Z M 7,13 H 25 V 25 H 7 Z m 5,2 a 4,4 0 0 0 -4,4 4,4 0 0 0 4,4 4,4 0 0 0 4,-4 4,4 0 0 0 -4,-4 z m 6,0 a 1.0001,1.0001 0 1 0 0,2 h 4 a 1.0001,1.0001 0 1 0 0,-2 z m 0,3 a 1.0001,1.0001 0 1 0 0,2 h 4 a 1.0001,1.0001 0 1 0 0,-2 z m 0,3 a 1.0001,1.0001 0 1 0 0,2 h 4 a 1.0001,1.0001 0 1 0 0,-2 z"
       id="path24" /></g><g
     id="22-22-audio-volume-medium"><path
       style="opacity:0.00100002"
       d="m 64,-22 h 22 c 0,0 0,0 0,0 V 0 c 0,0 0,0 0,0 H 64 c 0,0 0,0 0,0 z"
       id="path5" /><path
       d="m 68.25,-7.9999991 v -6.0000019 h 4 L 77.25,-19 v 16 l -5,-4.9999991 z m 11,1.0000003 v -8.0500022 q 1.125,0.525002 1.812501,1.625001 0.687499,1.1 0.687499,2.425 0,1.3250001 -0.687499,2.400001 Q 80.375,-7.5249993 79.25,-6.9999988 Z M 75.25,-14.15 73.099999,-12 H 70.25 v 2.0000002 h 2.849999 L 75.25,-7.8500003 Z m -2.5,3.15 z"
       id="path1-3"
       style="fill:#dfdfdf;fill-opacity:1;stroke-width:0.0249999" /></g><g
     id="22-22-audio-volume-high"
     transform="translate(1.0847458,3.6610169)"><path
       style="opacity:0.00100002"
       d="m 96,-25.713983 h 22 c 0,0 0,0 0,0 v 22 c 0,0 0,0 0,0 H 96 c 0,0 0,0 0,0 z"
       id="path9" /><path
       d="m 108.77778,-6.936205 v -1.822223 q 2,-0.577777 3.22222,-2.222222 1.22222,-1.644444 1.22222,-3.733333 0,-2.088889 -1.22222,-3.733334 -1.22222,-1.644444 -3.22222,-2.222222 v -1.822222 q 2.75556,0.622222 4.48889,2.788889 1.73333,2.166667 1.73333,4.988889 0,2.822222 -1.73333,4.988889 -1.73333,2.166666 -4.48889,2.788889 z m -9.777779,-5.088889 v -5.333334 h 3.555559 L 107,-21.802872 V -7.58065 l -4.44444,-4.444444 z m 9.777779,0.888889 v -7.155556 q 1.04444,0.488889 1.63333,1.466667 0.58889,0.977777 0.58889,2.133333 0,1.133333 -0.58889,2.1 -0.58889,0.966667 -1.63333,1.455556 z m -3.55556,-6.355556 -1.91111,1.911111 h -2.53333 v 1.777778 h 2.53333 l 1.91111,1.911111 z m -2.22222,2.8 z"
       id="path1-6"
       style="fill:#dfdfdf;fill-opacity:1;stroke-width:0.0222222" /></g><g
     id="22-22-audio-volume-low"
     transform="translate(-0.09587889,-0.47939443)"><path
       style="opacity:0.00100002"
       d="m 32,-22.197532 h 22 c 0,0 0,0 0,0 v 21.9999995 c 0,0 0,0 0,0 H 32 c 0,0 0,0 0,0 z"
       id="path1" /><path
       d="m 38.5,-8.1975325 v -6.0000005 h 4 l 5,-4.999999 v 15.9999995 l -5,-5 z m 2,-1.9999995 h 2.85 l 2.15,2.1500005 v -6.3000015 l -2.15,2.150001 H 40.5 Z m 2.5,-1 z"
       id="path1-35"
       style="fill:#dfdfdf;fill-opacity:1;stroke-width:0.025" /></g><g
     id="22-22-audio-volume-muted"><path
       style="opacity:0.00100002"
       d="M -7e-7,-22.000005 H 21.999999 c 0,0 0,0 0,0 v 22 c 0,0 0,0 0,0 H -7e-7 c 0,0 0,0 0,0 z"
       id="path25" /><path
       d="m 17.868686,-3.0000048 -2.444445,-2.444444 q -0.50505,0.323232 -1.070707,0.555555 -0.565656,0.232323 -1.171717,0.373738 v -1.656566 q 0.282829,-0.10101 0.555556,-0.20202 0.272727,-0.10101 0.515151,-0.242424 l -2.686868,-2.6868694 v 4.2020204 L 7.5252518,-9.1414192 H 4.2929284 V -13.989904 H 6.878787 l -3.8787879,-3.878788 1.1313131,-1.131313 14.8686868,14.8686872 z m -0.161616,-4.6868694 -1.171717,-1.171717 q 0.343434,-0.626262 0.515151,-1.3131308 0.171717,-0.686869 0.171717,-1.414142 0,-1.898989 -1.111111,-3.393939 -1.111111,-1.494949 -2.929293,-2.020202 v -1.656566 q 2.505051,0.565657 4.080808,2.535354 1.575758,1.969697 1.575758,4.535353 0,1.070708 -0.292929,2.0606068 -0.292929,0.989899 -0.838384,1.838383 z m -2.707071,-2.7070698 -1.818182,-1.818182 v -2.626263 q 0.949495,0.444445 1.484849,1.333334 0.535353,0.888888 0.535353,1.939394 0,0.30303 -0.05051,0.595959 -0.0505,0.292929 -0.151515,0.575758 z m -3.434343,-3.434344 -2.1010104,-2.10101 2.1010104,-2.10101 z M 9.9494941,-9.0202072 V -10.919197 L 8.4949488,-12.373742 H 5.90909 v 1.616161 H 8.2121205 Z M 9.2222214,-11.64647 Z"
       id="path1-0"
       style="fill:#dfdfdf;fill-opacity:1;stroke-width:0.020202" /></g></svg>
