<?xml version="1.0" encoding="UTF-8" standalone="no"?>
<svg
   width="32"
   height="32"
   version="1.1"
   id="svg4"
   sodipodi:docname="klipper.svg"
   xml:space="preserve"
   inkscape:version="1.3 (0e150ed, 2023-07-21)"
   xmlns:inkscape="http://www.inkscape.org/namespaces/inkscape"
   xmlns:sodipodi="http://sodipodi.sourceforge.net/DTD/sodipodi-0.dtd"
   xmlns="http://www.w3.org/2000/svg"
   xmlns:svg="http://www.w3.org/2000/svg"><sodipodi:namedview
     id="namedview4"
     pagecolor="#ffffff"
     bordercolor="#000000"
     borderopacity="0.25"
     inkscape:showpageshadow="2"
     inkscape:pageopacity="0.0"
     inkscape:pagecheckerboard="0"
     inkscape:deskcolor="#d1d1d1"
     inkscape:zoom="9.534893"
     inkscape:cx="22.863392"
     inkscape:cy="8.3377968"
     inkscape:window-width="1904"
     inkscape:window-height="1064"
     inkscape:window-x="1374"
     inkscape:window-y="8"
     inkscape:window-maximized="1"
     inkscape:current-layer="svg4" /><defs
     id="materia"><style
       id="current-color-scheme"
       type="text/css">&#10;   .ColorScheme-Background {color:#181818; } .ColorScheme-ButtonBackground { color:#343434; } .ColorScheme-Highlight { color:#4285f4; } .ColorScheme-Text { color:#dfdfdf; } .ColorScheme-ViewBackground { color:#242424; } .ColorScheme-NegativeText { color:#f44336; } .ColorScheme-PositiveText { color:#4caf50; } .ColorScheme-NeutralText { color:#ff9800; }&#10;  </style></defs><g
     id="22-22-klipper"><rect
       style="opacity:0.00100002"
       width="22"
       height="22"
       x="36.614632"
       y="9.0560999"
       id="rect1" /><path
       d="m 54.494632,28.8561 -2.16,-2.16 q -0.44,0.26 -0.92,0.409998 -0.48,0.150002 -1,0.150002 -1.5,0 -2.550002,-1.050002 -1.049998,-1.049998 -1.049998,-2.549998 0,-1.5 1.049998,-2.550002 1.050002,-1.049998 2.550002,-1.049998 1.5,0 2.550002,1.049998 1.049998,1.050002 1.049998,2.550002 0,0.52 -0.149998,1 -0.150002,0.48 -0.410002,0.92 l 2.16,2.16 z m -4.08,-3.2 q 0.84,0 1.42,-0.58 0.58,-0.58 0.58,-1.42 0,-0.84 -0.58,-1.42 -0.58,-0.58 -1.42,-0.58 -0.84,0 -1.42,0.58 -0.58,0.58 -0.58,1.42 0,0.84 0.58,1.42 0.58,0.58 1.42,0.58 z m 3.6,-7.2 h -1.6 v -4 h -1.6 v 2.4 h -8 v -2.4 h -1.6 v 11.2 h 4 v 1.6 h -4 q -0.66,0 -1.130002,-0.470002 Q 39.614632,26.3161 39.614632,25.6561 v -11.2 q 0,-0.66 0.469998,-1.130002 0.470002,-0.469998 1.130002,-0.469998 h 3.34 q 0.22,-0.7 0.86,-1.150002 0.64,-0.449998 1.4,-0.449998 0.8,0 1.429998,0.449998 0.630002,0.450002 0.850002,1.150002 h 3.32 q 0.66,0 1.129998,0.469998 0.470002,0.470002 0.470002,1.130002 z m -7.2,-4 q 0.34,0 0.569998,-0.230002 0.230002,-0.229998 0.230002,-0.569998 0,-0.34 -0.230002,-0.570002 -0.229998,-0.229998 -0.569998,-0.229998 -0.34,0 -0.570002,0.229998 -0.229998,0.230002 -0.229998,0.570002 0,0.34 0.229998,0.569998 0.230002,0.230002 0.570002,0.230002 z"
       id="path1-3"
       style="fill:#dfdfdf;fill-opacity:1;stroke-width:0.02" /></g><g
     id="klipper"><rect
       style="opacity:0.00100002"
       width="32"
       height="32"
       x="0"
       y="0"
       id="rect2" /><path
       d="M 24.6,27 21.9,24.3 Q 21.35,24.625 20.75,24.8125 20.15,25 19.5,25 17.625,25 16.3125,23.6875 15,22.375 15,20.5 15,18.625 16.3125,17.3125 17.625,16 19.5,16 21.375,16 22.6875,17.3125 24,18.625 24,20.5 24,21.15 23.8125,21.75 23.625,22.35 23.3,22.9 l 2.7,2.7 z m -5.1,-4 q 1.05,0 1.775,-0.725 Q 22,21.55 22,20.5 22,19.45 21.275,18.725 20.55,18 19.5,18 18.45,18 17.725,18.725 17,19.45 17,20.5 17,21.55 17.725,22.275 18.45,23 19.5,23 Z M 24,14 H 22 V 9.0000001 H 20 V 12 H 10 V 9.0000001 H 8.0000002 V 23 H 13 v 2 H 8.0000002 Q 7.1750002,25 6.5875,24.4125 6,23.825 6,23 V 9.0000001 q 0,-0.825 0.5875,-1.4125 0.5875002,-0.5875 1.4125002,-0.5875 H 12.175 q 0.275,-0.875 1.075,-1.4375 0.8,-0.5625 1.75,-0.5625 1,0 1.7875,0.5625 0.7875,0.5625 1.0625,1.4375 H 22 q 0.825,0 1.4125,0.5875 Q 24,8.1750001 24,9.0000001 Z M 15,9.0000001 q 0.425,0 0.7125,-0.2875 0.2875,-0.2875 0.2875,-0.7125 0,-0.425 -0.2875,-0.7125 -0.2875,-0.2875 -0.7125,-0.2875 -0.425,0 -0.7125,0.2875 -0.2875,0.2875 -0.2875,0.7125 0,0.425 0.2875,0.7125 0.2875,0.2875 0.7125,0.2875 z"
       id="path1"
       style="fill:#dfdfdf;fill-opacity:1;stroke-width:0.025" /></g></svg>
