<?xml version="1.0" encoding="UTF-8" standalone="no"?>
<svg
   width="32"
   height="32"
   version="1.1"
   id="svg8"
   sodipodi:docname="update.svg"
   xml:space="preserve"
   inkscape:version="1.3 (0e150ed, 2023-07-21)"
   xmlns:inkscape="http://www.inkscape.org/namespaces/inkscape"
   xmlns:sodipodi="http://sodipodi.sourceforge.net/DTD/sodipodi-0.dtd"
   xmlns="http://www.w3.org/2000/svg"
   xmlns:svg="http://www.w3.org/2000/svg"><sodipodi:namedview
     id="namedview8"
     pagecolor="#ffffff"
     bordercolor="#000000"
     borderopacity="0.25"
     inkscape:showpageshadow="2"
     inkscape:pageopacity="0.0"
     inkscape:pagecheckerboard="0"
     inkscape:deskcolor="#d1d1d1"
     inkscape:zoom="10.429825"
     inkscape:cx="19.942808"
     inkscape:cy="16.059713"
     inkscape:window-width="1904"
     inkscape:window-height="1064"
     inkscape:window-x="1374"
     inkscape:window-y="8"
     inkscape:window-maximized="0"
     inkscape:current-layer="svg8" /><defs
     id="materia"><style
       id="current-color-scheme"
       type="text/css">&#10;   .ColorScheme-Background {color:#181818; } .ColorScheme-ButtonBackground { color:#343434; } .ColorScheme-Highlight { color:#4285f4; } .ColorScheme-Text { color:#dfdfdf; } .ColorScheme-ViewBackground { color:#242424; } .ColorScheme-NegativeText { color:#f44336; } .ColorScheme-PositiveText { color:#4caf50; } .ColorScheme-NeutralText { color:#ff9800; }&#10;  </style></defs><g
     id="22-22-update-medium"
     transform="translate(32,-54)"><rect
       style="opacity:0.001"
       width="22"
       height="22"
       x="0"
       y="32"
       id="rect2" /><path
       style="fill:currentColor"
       class="ColorScheme-Text"
       d="m 11,35 c -4.4183,0 -8,3.5817 -8,8 0,4.418 3.5817,8 8,8 4.418,0 8,-3.582 8,-8 0,-4.4183 -3.582,-8 -8,-8 z m 0,2 c 1.495771,0 2.989091,0.560161 4.148438,1.671875 -0.370703,0.143824 -0.713602,0.377967 -0.976563,0.75 l -0.460937,0.654297 C 12.142097,38.621879 9.6974738,38.646276 8.171875,40.171875 7.3909653,40.952785 7.0040093,41.976417 7.0039062,43 h 0.296875 A 0.69923716,0.5746971 1.1588047e-6 0 1 7.90625,43.861328 l -0.6503906,0.925781 -0.6523438,0.925782 a 0.69923716,0.5746971 1.1588047e-6 0 1 -1.2089844,0 L 4.7441406,44.787109 4.09375,43.861328 A 0.69923716,0.5746971 1.1588047e-6 0 1 4.4921875,43.025391 0.69923716,0.5746971 1.1588047e-6 0 1 4.6972656,43 H 5.0019531 C 5.0020237,41.464515 5.5863637,39.929261 6.7578125,38.757812 7.9293912,37.586234 9.464469,37 11,37 Z m 4.962891,3.001953 a 0.69923716,0.5746971 1.1588047e-6 0 1 0.642578,0.285156 l 0.65039,0.925782 0.650391,0.925781 A 0.69923716,0.5746971 1.1588047e-6 0 1 17.507812,42.974609 0.69923716,0.5746971 1.1588047e-6 0 1 17.302734,43 h -0.304687 c -7.1e-5,1.535485 -0.584412,3.070735 -1.755859,4.242188 C 14.070609,48.413764 12.535531,49 11,49 9.5050912,49 8.0125771,48.440509 6.8535156,47.330078 c 0.363732,-0.140945 0.7082551,-0.373476 0.9746094,-0.75 v -0.002 l 0.4609375,-0.654297 c 1.5688391,1.454293 4.0134635,1.429896 5.5390625,-0.0957 C 14.609035,45.047215 14.995991,44.023583 14.996094,43 H 14.699219 A 0.69923716,0.5746971 1.1588047e-6 0 1 14.09375,42.138672 l 0.650391,-0.925781 0.652343,-0.925782 a 0.69923716,0.5746971 1.1588047e-6 0 1 0.566407,-0.285156 z"
       id="path2" /><circle
       style="fill:currentColor"
       class="ColorScheme-NeutralText"
       cx="20"
       cy="50"
       r="2"
       id="circle2" /></g><g
     id="22-22-update-high"
     transform="translate(32,-86)"><rect
       style="opacity:0.001"
       width="22"
       height="22"
       x="0"
       y="32"
       id="rect3" /><path
       style="fill:currentColor"
       class="ColorScheme-Text"
       d="m 11,35 c -4.4183,0 -8,3.5817 -8,8 0,4.418 3.5817,8 8,8 4.418,0 8,-3.582 8,-8 0,-4.4183 -3.582,-8 -8,-8 z m 0,2 c 1.495771,0 2.989091,0.560161 4.148438,1.671875 -0.370703,0.143824 -0.713602,0.377967 -0.976563,0.75 l -0.460937,0.654297 C 12.142097,38.621879 9.6974738,38.646276 8.171875,40.171875 7.3909653,40.952785 7.0040093,41.976417 7.0039062,43 h 0.296875 A 0.69923716,0.5746971 1.1588047e-6 0 1 7.90625,43.861328 l -0.6503906,0.925781 -0.6523438,0.925782 a 0.69923716,0.5746971 1.1588047e-6 0 1 -1.2089844,0 L 4.7441406,44.787109 4.09375,43.861328 A 0.69923716,0.5746971 1.1588047e-6 0 1 4.4921875,43.025391 0.69923716,0.5746971 1.1588047e-6 0 1 4.6972656,43 H 5.0019531 C 5.0020237,41.464515 5.5863637,39.929261 6.7578125,38.757812 7.9293912,37.586234 9.464469,37 11,37 Z m 4.962891,3.001953 a 0.69923716,0.5746971 1.1588047e-6 0 1 0.642578,0.285156 l 0.65039,0.925782 0.650391,0.925781 A 0.69923716,0.5746971 1.1588047e-6 0 1 17.507812,42.974609 0.69923716,0.5746971 1.1588047e-6 0 1 17.302734,43 h -0.304687 c -7.1e-5,1.535485 -0.584412,3.070735 -1.755859,4.242188 C 14.070609,48.413764 12.535531,49 11,49 9.5050912,49 8.0125771,48.440509 6.8535156,47.330078 c 0.363732,-0.140945 0.7082551,-0.373476 0.9746094,-0.75 v -0.002 l 0.4609375,-0.654297 c 1.5688391,1.454293 4.0134635,1.429896 5.5390625,-0.0957 C 14.609035,45.047215 14.995991,44.023583 14.996094,43 H 14.699219 A 0.69923716,0.5746971 1.1588047e-6 0 1 14.09375,42.138672 l 0.650391,-0.925781 0.652343,-0.925782 a 0.69923716,0.5746971 1.1588047e-6 0 1 0.566407,-0.285156 z"
       id="path3" /><circle
       style="fill:currentColor"
       class="ColorScheme-NegativeText"
       cx="20"
       cy="50"
       r="2"
       id="circle3" /></g><g
     id="22-22-update-none"
     transform="translate(32,-118)"><rect
       style="opacity:0.001"
       width="22"
       height="22"
       x="0"
       y="32"
       id="rect4" /><path
       style="opacity:0.35;fill:currentColor"
       class="ColorScheme-Text"
       d="m 11,35 c -4.4183,0 -8,3.5817 -8,8 0,4.418 3.5817,8 8,8 4.418,0 8,-3.582 8,-8 0,-4.4183 -3.582,-8 -8,-8 z m 0,2 c 1.495771,0 2.989091,0.560161 4.148438,1.671875 -0.370703,0.143824 -0.713602,0.377967 -0.976563,0.75 l -0.460937,0.654297 C 12.142097,38.621879 9.6974738,38.646276 8.171875,40.171875 7.3909653,40.952785 7.0040093,41.976417 7.0039062,43 h 0.296875 A 0.69923716,0.5746971 1.1588047e-6 0 1 7.90625,43.861328 l -0.6503906,0.925781 -0.6523438,0.925782 a 0.69923716,0.5746971 1.1588047e-6 0 1 -1.2089844,0 L 4.7441406,44.787109 4.09375,43.861328 A 0.69923716,0.5746971 1.1588047e-6 0 1 4.4921875,43.025391 0.69923716,0.5746971 1.1588047e-6 0 1 4.6972656,43 H 5.0019531 C 5.0020237,41.464515 5.5863637,39.929261 6.7578125,38.757812 7.9293912,37.586234 9.464469,37 11,37 Z m 4.962891,3.001953 a 0.69923716,0.5746971 1.1588047e-6 0 1 0.642578,0.285156 l 0.65039,0.925782 0.650391,0.925781 A 0.69923716,0.5746971 1.1588047e-6 0 1 17.507812,42.974609 0.69923716,0.5746971 1.1588047e-6 0 1 17.302734,43 h -0.304687 c -7.1e-5,1.535485 -0.584412,3.070735 -1.755859,4.242188 C 14.070609,48.413764 12.535531,49 11,49 9.5050912,49 8.0125771,48.440509 6.8535156,47.330078 c 0.363732,-0.140945 0.7082551,-0.373476 0.9746094,-0.75 v -0.002 l 0.4609375,-0.654297 c 1.5688391,1.454293 4.0134635,1.429896 5.5390625,-0.0957 C 14.609035,45.047215 14.995991,44.023583 14.996094,43 H 14.699219 A 0.69923716,0.5746971 1.1588047e-6 0 1 14.09375,42.138672 l 0.650391,-0.925781 0.652343,-0.925782 a 0.69923716,0.5746971 1.1588047e-6 0 1 0.566407,-0.285156 z"
       id="path4" /></g><g
     id="update-medium"
     transform="translate(0,-32)"><rect
       style="opacity:0.001"
       width="32"
       height="32"
       x="0"
       y="0"
       id="rect6" /><path
       style="fill:currentColor"
       class="ColorScheme-Text"
       d="M 16,4 C 9.37255,4 4,9.3725503 4,16 4,22.627001 9.37255,28 16,28 22.627,28 28,22.627001 28,16 28,9.3725503 22.627,4 16,4 Z m 0,3 c 2.162794,0 4.318577,0.7863716 6.029297,2.3359375 -0.409376,0.1988084 -0.79651,0.4870512 -1.113281,0.9179685 l -0.002,0.002 -0.929687,1.269532 c -2.356034,-2.1006053 -5.966214,-2.0279251 -8.226563,0.232421 -1.17163,1.171637 -1.750059,2.706575 -1.75,4.242188 h 0.871094 a 1.1222676,0.88226761 0 0 1 0.970703,1.322266 l -1.189453,1.61914 -1.1874998,1.619141 a 1.1222676,0.88226761 0 0 1 -1.9433593,0 L 6.3398438,18.941406 5.1503906,17.322266 A 1.1222676,0.88226761 0 0 1 6.1210938,16 H 7.0039062 C 7.0037198,13.696455 7.8791726,11.394265 9.6367188,9.6367188 11.394078,7.8793591 13.696699,7 16,7 Z m 7.439453,4 a 1.1222676,0.88226761 0 0 1 1.03125,0.439453 l 1.189453,1.619141 1.189453,1.61914 A 1.1222676,0.88226761 0 0 1 25.878906,16 h -0.882812 c 1.86e-4,2.303545 -0.875267,4.605735 -2.632813,6.363281 C 20.605922,24.120641 18.303301,25 16,25 13.837206,25 11.681423,24.213629 9.9707031,22.664062 10.380079,22.465256 10.767213,22.177012 11.083984,21.746094 l 0.002,-0.002 0.929687,-1.269532 c 2.356034,2.100605 5.966214,2.027926 8.226563,-0.232421 1.171628,-1.171634 1.750059,-2.706575 1.75,-4.242188 h -0.871094 a 1.1222676,0.88226761 0 0 1 -0.970703,-1.322266 l 1.189453,-1.61914 1.1875,-1.619141 A 1.1222676,0.88226761 0 0 1 23.439453,11 Z"
       id="path6" /><circle
       style="fill:currentColor"
       class="ColorScheme-NeutralText"
       cx="29"
       cy="26"
       r="3"
       id="circle6" /></g><g
     id="update-high"
     transform="translate(0,-64)"><rect
       style="opacity:0.001"
       width="32"
       height="32"
       x="0"
       y="0"
       id="rect7" /><path
       style="fill:currentColor"
       class="ColorScheme-Text"
       d="M 16,4 C 9.37255,4 4,9.3725503 4,16 4,22.627001 9.37255,28 16,28 22.627,28 28,22.627001 28,16 28,9.3725503 22.627,4 16,4 Z m 0,3 c 2.162794,0 4.318577,0.7863716 6.029297,2.3359375 -0.409376,0.1988084 -0.79651,0.4870512 -1.113281,0.9179685 l -0.002,0.002 -0.929687,1.269532 c -2.356034,-2.1006053 -5.966214,-2.0279251 -8.226563,0.232421 -1.17163,1.171637 -1.750059,2.706575 -1.75,4.242188 h 0.871094 a 1.1222676,0.88226761 0 0 1 0.970703,1.322266 l -1.189453,1.61914 -1.1874998,1.619141 a 1.1222676,0.88226761 0 0 1 -1.9433593,0 L 6.3398438,18.941406 5.1503906,17.322266 A 1.1222676,0.88226761 0 0 1 6.1210938,16 H 7.0039062 C 7.0037198,13.696455 7.8791726,11.394265 9.6367188,9.6367188 11.394078,7.8793591 13.696699,7 16,7 Z m 7.439453,4 a 1.1222676,0.88226761 0 0 1 1.03125,0.439453 l 1.189453,1.619141 1.189453,1.61914 A 1.1222676,0.88226761 0 0 1 25.878906,16 h -0.882812 c 1.86e-4,2.303545 -0.875267,4.605735 -2.632813,6.363281 C 20.605922,24.120641 18.303301,25 16,25 13.837206,25 11.681423,24.213629 9.9707031,22.664062 10.380079,22.465256 10.767213,22.177012 11.083984,21.746094 l 0.002,-0.002 0.929687,-1.269532 c 2.356034,2.100605 5.966214,2.027926 8.226563,-0.232421 1.171628,-1.171634 1.750059,-2.706575 1.75,-4.242188 h -0.871094 a 1.1222676,0.88226761 0 0 1 -0.970703,-1.322266 l 1.189453,-1.61914 1.1875,-1.619141 A 1.1222676,0.88226761 0 0 1 23.439453,11 Z"
       id="path7" /><circle
       style="fill:currentColor"
       class="ColorScheme-NegativeText"
       cx="29"
       cy="26"
       r="3"
       id="circle7" /></g><g
     id="update-none"
     transform="translate(0,-96)"><rect
       style="opacity:0.001"
       width="32"
       height="32"
       x="0"
       y="0"
       id="rect8" /><path
       style="opacity:0.35;fill:currentColor"
       class="ColorScheme-Text"
       d="M 16,4 C 9.37255,4 4,9.3725503 4,16 4,22.627001 9.37255,28 16,28 22.627,28 28,22.627001 28,16 28,9.3725503 22.627,4 16,4 Z m 0,3 c 2.162794,0 4.318577,0.7863716 6.029297,2.3359375 -0.409376,0.1988084 -0.79651,0.4870512 -1.113281,0.9179685 l -0.002,0.002 -0.929687,1.269532 c -2.356034,-2.1006053 -5.966214,-2.0279251 -8.226563,0.232421 -1.17163,1.171637 -1.750059,2.706575 -1.75,4.242188 h 0.871094 a 1.1222676,0.88226761 0 0 1 0.970703,1.322266 l -1.189453,1.61914 -1.1874998,1.619141 a 1.1222676,0.88226761 0 0 1 -1.9433593,0 L 6.3398438,18.941406 5.1503906,17.322266 A 1.1222676,0.88226761 0 0 1 6.1210938,16 H 7.0039062 C 7.0037198,13.696455 7.8791726,11.394265 9.6367188,9.6367188 11.394078,7.8793591 13.696699,7 16,7 Z m 7.439453,4 a 1.1222676,0.88226761 0 0 1 1.03125,0.439453 l 1.189453,1.619141 1.189453,1.61914 A 1.1222676,0.88226761 0 0 1 25.878906,16 h -0.882812 c 1.86e-4,2.303545 -0.875267,4.605735 -2.632813,6.363281 C 20.605922,24.120641 18.303301,25 16,25 13.837206,25 11.681423,24.213629 9.9707031,22.664062 10.380079,22.465256 10.767213,22.177012 11.083984,21.746094 l 0.002,-0.002 0.929687,-1.269532 c 2.356034,2.100605 5.966214,2.027926 8.226563,-0.232421 1.171628,-1.171634 1.750059,-2.706575 1.75,-4.242188 H 21.12114 a 1.1222676,0.88226761 0 0 1 -0.970703,-1.322266 l 1.189453,-1.61914 1.1875,-1.619141 A 1.1222676,0.88226761 0 0 1 23.439453,11 Z"
       id="path8" /></g><g
     id="22-22-update-low"
     transform="translate(-11.601345,-2.8763666)"><rect
       style="opacity:0.00100002"
       width="22"
       height="22"
       x="49.707626"
       y="10"
       id="rect1" /><g
       id="g8"
       transform="translate(-20.707627,-0.460749)"><circle
         style="fill:currentColor;stroke-width:1.64407"
         class="ColorScheme-Highlight"
         cx="85.423729"
         cy="26.169491"
         r="3.2881355"
         id="circle1" /><path
         d="m 80.994201,20.555486 z m -0.842105,-7.705263 q 0.4,-0.231579 0.842105,-0.231579 0.442106,0 0.842106,0.231579 l 5.894737,3.389473 q 0.4,0.231579 0.62105,0.610527 0.22105,0.378947 0.22105,0.842105 v 3.578947 q -0.37894,-0.273684 -0.8,-0.473684 -0.42105,-0.2 -0.88421,-0.347368 v -1.852632 l -3.03157,1.747369 q -1.178952,0.294736 -2.136847,1 -0.957895,0.705263 -1.568421,1.715789 v -1.536842 l -5.052631,-2.926316 v 5.768421 l 4.252631,2.463158 q 0.08421,0.673684 0.31579,1.294737 0.231579,0.621052 0.589473,1.168421 -0.04211,-0.02105 -0.05263,-0.03158 -0.01053,-0.01053 -0.05263,-0.03158 l -5.89474,-3.389472 q -0.4,-0.231578 -0.621052,-0.610526 -0.221053,-0.378947 -0.221053,-0.842105 v -6.694737 q 0,-0.463158 0.221053,-0.842105 0.221052,-0.378948 0.621052,-0.610527 z m 0.842105,1.452631 -4.989473,2.884211 4.989473,2.88421 4.989473,-2.88421 z m 4.210523,14.31579 2.52632,-2.526316 -0.58947,-0.589474 -1.51579,1.51579 v -3.452632 h -0.84211 v 3.452632 l -1.51579,-1.51579 -0.589472,0.589474 z m 0,1.68421 q -1.74736,0 -2.978944,-1.231579 -1.231579,-1.231579 -1.231579,-2.978947 0,-1.747368 1.231579,-2.978947 1.231584,-1.231579 2.978944,-1.231579 1.74737,0 2.97895,1.231579 1.23158,1.231579 1.23158,2.978947 0,1.747368 -1.23158,2.978947 -1.23158,1.231579 -2.97895,1.231579 z"
         id="path1-3"
         style="fill:#dfdfdf;fill-opacity:1;stroke-width:0.0210526" /></g></g><g
     id="update-low"><rect
       style="opacity:0.00100002"
       width="32"
       height="32"
       x="0"
       y="0"
       id="rect5" /><circle
       style="fill:currentColor;stroke-width:1.54332"
       class="ColorScheme-Highlight"
       cx="21.23381"
       cy="21.973087"
       r="4.629941"
       id="circle5" /><path
       d="M 15.428572,14.771429 Z M 14.285715,4.314286 q 0.542857,-0.3142857 1.142857,-0.3142857 0.6,0 1.142858,0.3142857 l 8,4.5999997 q 0.542857,0.314285 0.842857,0.828571 0.3,0.5142863 0.3,1.1428573 v 4.857143 Q 25.200001,15.371429 24.628573,15.1 q -0.571429,-0.271428 -1.2,-0.471428 v -2.514286 l -4.114286,2.371428 q -1.6,0.4 -2.9,1.357143 -1.3,0.957143 -2.128572,2.328572 V 16.085714 L 7.4285725,12.114286 v 7.828571 l 5.7714285,3.342858 q 0.114286,0.914285 0.428571,1.757142 0.314286,0.842858 0.8,1.585715 -0.05714,-0.02857 -0.07143,-0.04286 -0.01429,-0.01429 -0.07143,-0.04286 l -7.9999994,-4.6 q -0.542857,-0.314285 -0.842857,-0.828571 -0.3,-0.514286 -0.3,-1.142857 v -9.085715 q 0,-0.628571 0.3,-1.1428573 0.3,-0.514286 0.842857,-0.828571 z M 15.428572,6.2857146 8.6571446,10.2 15.428572,14.114286 22.200001,10.2 Z m 5.714286,19.4285714 3.428572,-3.428571 -0.8,-0.800001 -2.057143,2.057143 V 18.857143 H 20.57143 v 4.685714 l -2.057143,-2.057143 -0.8,0.800001 z m 0,2.285714 q -2.371428,0 -4.042857,-1.671428 -1.671429,-1.671429 -1.671429,-4.042857 0,-2.371429 1.671429,-4.042858 1.671429,-1.671428 4.042857,-1.671428 2.371429,0 4.042857,1.671428 1.671429,1.671429 1.671429,4.042858 0,2.371428 -1.671429,4.042857 Q 23.514287,28 21.142858,28 Z"
       id="path1"
       style="fill:#dfdfdf;fill-opacity:1;stroke-width:0.0285714" /></g></svg>
